<svg height="72" viewBox="0 0 19.049999 19.05" width="72" xmlns="http://www.w3.org/2000/svg"><rect fill="#fff" height="17.843588" ry="4.731268" stroke="#faa" stroke-width=".941829" width="17.843588" x=".603206" y=".603206"/><g stroke="#000" stroke-width=".555109"><path d="m0 0c0 8.741 4.751 16.37 11.811 20.455-3.474 2.011-7.506 3.167-11.811 3.167-13.047 0-23.622-10.576-23.622-23.622s10.575-23.622 23.622-23.622c4.305 0 8.337 1.158 11.811 3.167-7.06 4.085-11.811 11.712-11.811 20.455" fill="#30a8e1" transform="matrix(.22401719 0 0 -.22635054 6.98639 11.434988)"/><path d="m0 0c-4.307 0-8.337-1.156-11.813-3.167 7.06-4.085 11.813-11.714 11.813-20.455 0-8.743-4.753-16.37-11.813-20.455 3.476-2.009 7.506-3.167 11.813-3.167 13.045 0 23.62 10.576 23.62 23.622s-10.575 23.622-23.62 23.622" fill="#ed798d" transform="matrix(.22401719 0 0 -.22635054 12.278371 6.088136)"/><g fill="#6879ba"><path d="m0 0c0 8.741-4.753 16.37-11.813 20.455-7.059-4.085-11.81-11.714-11.81-20.455 0-8.743 4.751-16.37 11.81-20.455 7.06 4.085 11.813 11.712 11.813 20.455" transform="matrix(.22401719 0 0 -.22635054 12.278371 11.434988)"/><path d="m0 0c-3.98 1.062-8.4.035-11.522-3.086-3.124-3.121-4.148-7.543-3.086-11.522 3.979-1.062 8.399-.035 11.52 3.087 3.123 3.119 4.15 7.542 3.088 11.521" transform="matrix(.22401719 0 0 -.22635054 13.075754 2.05681)"/><path d="m0 0c-.632-2.37-.02-5 1.841-6.858 1.855-1.86 4.49-2.473 6.858-1.841.633 2.371.021 5.004-1.837 6.862-1.859 1.861-4.49 2.47-6.862 1.837" transform="matrix(.22401719 0 0 -.22635054 7.487808 3.431822)"/></g></g></svg>