<svg enable-background="new 0 0 1133.9 1133.9" viewBox="0 0 1133.9 1133.9" xmlns="http://www.w3.org/2000/svg"><path d="m820.7 736.3c-20.3 0-41.1 3.3-60.7 9.6-10.6-20.1-16.2-41.1-16.8-62 .6-23.9 7.3-47.1 20-68.9 18.7 5.6 38.4 8.6 57.5 8.6 109.6 0 198.8-89.2 198.8-198.8s-89.2-198.8-198.8-198.8-198.8 89.2-198.8 198.8c0 21.6 3.7 43.6 10.7 64.2-21 11.6-43 17.8-65 18.3-22.8-.5-45.1-6.7-66.3-18.6 7-20.6 10.6-42.5 10.6-64.1 0-109.6-89.2-198.8-198.8-198.8s-198.8 89.2-198.8 198.8 89.2 198.8 198.8 198.8c19.3 0 39-3 57.8-8.6 12.7 21.9 19.5 44.9 20.1 68-.5 21.7-6.2 42.9-16.8 63.1-19.8-6.4-40.7-9.7-61.1-9.7-109.6 0-198.8 89.2-198.8 198.8s89.2 198.8 198.8 198.8 198.9-89.1 198.9-198.7c0-19.4-3-39.3-8.8-58.2 20.4-11 41.8-16.9 63.8-17.6 22 .6 43.4 6.4 63.7 17.4-5.8 18.9-8.9 38.9-8.9 58.5 0 109.6 89.2 198.8 198.8 198.8 53.2 0 103.3-20.8 140.8-58.4 37.6-37.6 58.2-87.4 58-140.3.1-53-20.5-102.9-58-140.4-37.7-37.8-87.6-58.6-140.7-58.6z" fill="#fff"/><path d="m455.9 234.3h222c25.7 0 48.5-15.4 58.3-39.2 9.7-23.8 4.1-50.8-14.3-68.7l-111-108.4c-11.8-11.6-27.5-18-44-18s-32.1 6.4-44 17.9l-111 108.4c-18.4 18-24 44.9-14.3 68.7 9.7 23.9 32.6 39.3 58.3 39.3z" fill="#fff"/><path d="m828.5 872.8-57.6-55.6c-40.2-40.3-61.1-85.3-62.1-133.8 1.1-48.7 22.1-93.8 62.3-134l58.9-63.1c13.5-1.9 25.9-8.1 35.3-17.7 11.8-11.9 18.4-27.6 18.4-44.2 0-16.7-6.5-32.4-18.4-44.3s-27.6-18.4-44.3-18.4-32.4 6.5-44.3 18.4c-10.6 10.6-16.9 24.5-17.9 39.4l-57.9 60.1c-40.3 40.2-85.3 61.1-133.8 62.1-48.5-1.1-93.5-22-133.9-62.1l-57.9-60.1c-1.1-14.8-7.4-28.6-17.8-39.2l-.1-.1c-11.9-11.9-27.6-18.4-44.3-18.4s-32.4 6.5-44.3 18.4c-11.8 11.8-18.3 27.5-18.3 44.3s6.5 32.5 18.3 44.3c9.6 9.6 22 15.8 35.2 17.6l58.5 62.6.5.5c40.3 40.3 61.2 85.4 62.3 133.9-1.1 48.5-22 93.5-62.2 133.9l-57.6 55.6c-13.9 1.7-26.8 7.9-36.7 17.8-11.9 11.9-18.4 27.6-18.4 44.3s6.5 32.4 18.4 44.3 27.6 18.4 44.3 18.4 32.4-6.5 44.3-18.4c10.1-10.1 16.4-23.4 17.8-37.8l57.4-53.6.5-.5c40.3-40.3 85.3-61.3 134-62.5 48.6 1.1 93.6 22.1 133.9 62.4l57.8 54c1.4 14.3 7.6 27.6 17.8 37.7 11.7 11.9 27.4 18.4 44.1 18.5h.2c16.7 0 32.5-6.5 44.3-18.4 11.8-11.8 18.3-27.5 18.3-44.3 0-16.7-6.5-32.5-18.4-44.3-9.9-9.9-22.8-16.1-36.6-17.7z" fill="#303030"/><g fill="#f4c70c"><path d="m329.5 424.7c0 9.1-7.4 16.5-16.5 16.5s-16.5-7.4-16.5-16.5 7.4-16.5 16.5-16.5c9 0 16.5 7.2 16.5 16.5z"/><path d="m313 448.7c-13.3 0-24.1-10.9-24.1-24.1s10.9-24.1 24.1-24.1c13.3 0 24.1 10.9 24.1 24.1-.2 13.4-10.9 24.1-24.1 24.1zm0-33.1c-4.9 0-8.9 4-8.9 8.9s4 8.9 8.9 8.9 8.9-4 8.9-8.9-4.1-8.9-8.9-8.9z"/><path d="m837.4 424.7c0 9.1-7.4 16.5-16.5 16.5s-16.5-7.4-16.5-16.5 7.4-16.5 16.5-16.5 16.5 7.2 16.5 16.5z"/><path d="m820.7 448.7c-13.3 0-24.1-10.9-24.1-24.1s10.9-24.1 24.1-24.1c13.3 0 24.1 10.9 24.1 24.1.1 13.4-10.7 24.1-24.1 24.1zm0-33.1c-4.9 0-8.9 4-8.9 8.9s4 8.9 8.9 8.9 8.9-4 8.9-8.9c.2-4.9-3.8-8.9-8.9-8.9z"/><path d="m329.5 935.1c0 9.1-7.4 16.5-16.5 16.5s-16.5-7.4-16.5-16.5c0-9.3 7.4-16.5 16.5-16.5s16.5 7.3 16.5 16.5z"/><path d="m313 959.1c-13.3 0-24.1-10.7-24.1-24.1 0-13.3 10.9-24.1 24.1-24.1 13.3 0 24.1 10.9 24.1 24.1-.2 13.4-10.9 24.1-24.1 24.1zm0-33c-4.9 0-8.9 4-8.9 9.1 0 4.9 4 8.9 8.9 8.9s8.9-4 8.9-8.9c0-5.1-4.1-9.1-8.9-9.1z"/><path d="m837.4 935.1c0 9.1-7.4 16.5-16.5 16.5s-16.5-7.4-16.5-16.5c0-9.3 7.4-16.5 16.5-16.5s16.5 7.3 16.5 16.5z"/><path d="m820.7 959.1c-13.3 0-24.1-10.7-24.1-24.1 0-13.3 10.9-24.1 24.1-24.1 13.3 0 24.1 10.9 24.1 24.1.1 13.4-10.7 24.1-24.1 24.1zm0-33c-4.9 0-8.9 4-8.9 9.1 0 4.9 4 8.9 8.9 8.9s8.9-4 8.9-8.9c.2-5.1-3.8-9.1-8.9-9.1z"/></g><circle cx="313" cy="424.7" fill="#303030" r="8.7"/><circle cx="821.2" cy="424.7" fill="#303030" r="8.7"/><circle cx="313" cy="935.1" fill="#303030" r="8.7"/><circle cx="820.7" cy="935.1" fill="#303030" r="8.7"/><g opacity=".4"><circle cx="313.2" cy="424.7" fill="#4c4c4c" r="139.2"/><path d="m313.2 569.9c-80.1 0-145.2-65.2-145.2-145.2s65.2-145.2 145.2-145.2 145.2 65.2 145.2 145.2-65.2 145.2-145.2 145.2zm0-278.2c-73.4 0-133 59.7-133 133s59.6 133 133 133 133-59.7 133-133-59.7-133-133-133z"/><path d="m313.2 577.1c-84 0-152.4-68.4-152.4-152.4s68.4-152.4 152.4-152.4 152.4 68.4 152.4 152.4-68.4 152.4-152.4 152.4zm0-278.3c-69.4 0-125.9 56.5-125.9 125.9s56.5 125.9 125.9 125.9 125.8-56.5 125.8-125.9-56.4-125.9-125.8-125.9z"/></g><g opacity=".4"><circle cx="820.7" cy="424.7" fill="#4c4c4c" r="139.2"/><path d="m820.7 569.9c-80.1 0-145.2-65.2-145.2-145.2s65.2-145.2 145.2-145.2 145.1 65.2 145.1 145.2-64.9 145.2-145.1 145.2zm0-278.2c-73.4 0-133 59.7-133 133s59.6 133 133 133 133-59.7 133-133-59.5-133-133-133z"/><path d="m820.7 577.1c-84 0-152.4-68.4-152.4-152.4s68.4-152.4 152.4-152.4 152.3 68.4 152.3 152.4-68.3 152.4-152.3 152.4zm0-278.3c-69.4 0-125.9 56.5-125.9 125.9s56.5 125.9 125.9 125.9 125.9-56.5 125.9-125.9-56.5-125.9-125.9-125.9z"/></g><g opacity=".4"><circle cx="313.2" cy="935.1" fill="#4c4c4c" r="139.2"/><path d="m313.2 1080.4c-80.1 0-145.2-65.2-145.2-145.2s65.2-145.2 145.2-145.2 145.2 65.2 145.2 145.2-65.2 145.2-145.2 145.2zm0-278.3c-73.4 0-133 59.7-133 133s59.6 133.1 133 133.1 133-59.7 133-133-59.7-133.1-133-133.1z"/><path d="m313.2 1087.5c-84 0-152.4-68.4-152.4-152.4s68.4-152.4 152.4-152.4 152.4 68.4 152.4 152.4-68.4 152.4-152.4 152.4zm0-278.2c-69.4 0-125.9 56.5-125.9 125.9 0 69.5 56.5 126 125.9 126s125.8-56.6 125.8-126-56.4-125.9-125.8-125.9z"/></g><g opacity=".4"><circle cx="820.7" cy="935.1" fill="#4c4c4c" r="139.2"/><path d="m820.7 1080.4c-80.1 0-145.2-65.2-145.2-145.2s65.2-145.2 145.2-145.2 145.1 65.2 145.1 145.2c.3 80-64.9 145.2-145.1 145.2zm0-278.3c-73.4 0-133 59.7-133 133s59.6 133.1 133 133.1 133-59.7 133-133-59.5-133.1-133-133.1z"/><path d="m820.7 1087.5c-84 0-152.4-68.4-152.4-152.4s68.4-152.4 152.4-152.4 152.3 68.4 152.3 152.4c.1 40.6-15.7 78.8-44.4 107.6-28.8 28.9-67.1 44.8-107.9 44.8zm0-278.2c-69.4 0-125.9 56.5-125.9 125.9 0 69.5 56.5 126 125.9 126s125.9-56.5 125.9-125.9c0-69.5-56.5-126-125.9-126z"/></g><path d="m689.9 159.1-111-108.4c-6.6-6.5-17.3-6.5-23.9 0l-111 108.4c-5 4.9-6.5 12.3-3.9 18.7s8.9 10.7 15.8 10.7h222c7 0 13.2-4.2 15.8-10.7 2.7-6.4 1.1-13.8-3.8-18.7z" fill="#f94e73"/></svg>